<?xml version="1.0" encoding="utf-8"?>
<svg viewBox="120.359 145.191 161 34" xmlns="http://www.w3.org/2000/svg">
  <rect width="161" height="34" rx="4" fill="#0078D4" id="rect2" x="120.359" y="145.191"/>
  <path class="st0" d="M 142.698 151.653 L 149.698 151.653 C 150.298 151.653 150.898 152.053 151.098 152.653 L 157.198 170.653 C 157.498 171.653 156.798 172.653 155.798 172.653 L 148.898 172.653 C 148.898 172.653 148.798 172.653 148.798 172.653 C 148.498 172.653 148.198 172.553 147.898 172.353 L 143.298 168.953 L 142.398 171.653 C 142.198 172.253 141.598 172.653 140.998 172.653 L 136.598 172.653 C 135.598 172.653 134.898 171.653 135.198 170.653 L 141.198 152.653 C 141.498 152.053 141.998 151.653 142.698 151.653 L 142.698 151.653 Z M 140.098 165.353 L 148.498 171.553 C 148.598 171.653 148.698 171.653 148.798 171.653 C 149.098 171.653 149.398 171.353 149.298 170.953 L 145.898 160.953 L 144.598 164.253 L 144.498 164.653 L 144.198 164.653 L 139.198 164.653 L 140.098 165.353 Z M 155.798 171.653 L 150.198 171.653 C 150.298 171.353 150.298 171.053 150.198 170.653 L 144.198 152.653 L 149.798 152.653 C 149.998 152.653 150.198 152.753 150.298 152.953 L 156.398 170.953 C 156.398 171.353 156.098 171.653 155.798 171.653 Z" id="path37" style="clip-rule:evenodd;fill:#ffffff;fill-rule:evenodd"/>
  <text style="fill: rgb(255, 255, 255); font-family: Arial, sans-serif; white-space: pre; font-size: 15px;" y="168.099" x="173">Estimate Costs</text>
</svg>