<svg width="1437" height="337" xmlns="http://www.w3.org/2000/svg" xmlns:xlink="http://www.w3.org/1999/xlink" overflow="hidden"><defs><clipPath id="clip0"><path d="M89 113 1526 113 1526 450 89 450Z" fill-rule="evenodd" clip-rule="evenodd"/></clipPath></defs><g clip-path="url(#clip0)" transform="translate(-89 -113)"><text fill="#36424A" font-family="Geogrotesque,Geogrotesque_MSFontService,sans-serif" font-weight="600" font-size="160" transform="translate(415.714 311)">AZURE<tspan font-weight="300" x="444.333" y="0">RECIPES</tspan><tspan fill="#A7A486" font-family="Calibri,Calibri_MSFontService,sans-serif" font-weight="400" font-size="48" x="537.03" y="80">provided</tspan><tspan fill="#A7A486" font-family="Calibri,Calibri_MSFontService,sans-serif" font-weight="400" font-size="48" x="720.877" y="80">by</tspan><tspan fill="#A7A486" font-family="Calibri,Calibri_MSFontService,sans-serif" font-weight="400" font-size="48" x="778.31" y="80">GARAIO AG</tspan></text><path d="M227.896 377.035C266.439 369.945 298.273 364.077 298.639 363.996L299.304 363.849 262.916 318.771C242.902 293.979 226.527 273.598 226.527 273.481 226.527 273.258 264.101 165.498 264.313 165.115 264.383 164.986 289.953 210.963 326.297 276.565 360.322 337.983 388.374 388.622 388.635 389.097L389.109 389.959 273.463 389.943 157.818 389.928 227.896 377.035ZM89.1086 363.289C89.1086 363.226 106.255 332.227 127.211 294.404L165.314 225.635 209.717 186.826C234.139 165.481 254.187 147.991 254.267 147.959 254.347 147.928 254.026 148.77 253.553 149.831 253.08 150.892 231.383 199.36 205.337 257.537L157.981 363.314 123.545 363.359C104.605 363.384 89.1086 363.352 89.1086 363.289Z" fill="#36424A" fill-rule="evenodd"/></g></svg>